<?xml version="1.0" encoding="utf-8"?>
<!-- Generator: Adobe Illustrator 26.5.0, SVG Export Plug-In . SVG Version: 6.00 Build 0)  -->
<svg version="1.1" xmlns="http://www.w3.org/2000/svg" xmlns:xlink="http://www.w3.org/1999/xlink" x="0px" y="0px"
	 viewBox="0 0 1080 1080" style="enable-background:new 0 0 1080 1080;" xml:space="preserve">
<style type="text/css">
	.st0{display:none;}
	.st1{display:inline;fill:#D3EDED;}
	.st2{fill:#EFE9D3;}
	.st3{fill:#D1CBBA;}
	.st4{fill:none;stroke:#382109;stroke-width:3;stroke-miterlimit:10;}
	.st5{fill:#020200;}
	.st6{fill:#FFFFFF;stroke:#281906;stroke-width:3;stroke-miterlimit:10;}
	.st7{fill:#FFFFFF;}
	.st8{fill:none;stroke:#020202;stroke-width:3;stroke-miterlimit:10;}
	.st9{fill:#EFE9D3;stroke:#382109;stroke-width:3;stroke-miterlimit:10;}
</style>
<g id="Layer_5" class="st0">
	<rect x="7" class="st1" width="1080" height="1080"/>
</g>
<g id="Layer_1">
	<path class="st2" d="M731.3,142.9c-138.7-3.1-277.4-6.3-416.1-9.4c-36.3,327.9-12.2,594-13.5,593.9c-0.3,0-49.7-29.4-57.9-35
		c-10.3-7-34.6,6.6-48.5,21.5c-37.8,40.6,5.5,111.8,40.4,130.6c9.7,5.2-16,15.7-14.8,17.5c70.8,107.3,501.4,78.2,521.1,0
		L731.3,142.9z"/>
	<path class="st3" d="M301,728c-0.3,0-60.1-44.4-67.6-50.5c-9.3-7.6-31.3,7.2-43.9,23.3c-34.2,43.9-7,136.8,24.6,157.1
		c8.8,5.6,7.5,1.6,9.4,1.3c3.1-0.4-4.4,0.9-0.5,0.6c39.7-2.6,85.4-98.9,78.6-131.2"/>
</g>
<g id="Layer_2">
	<polyline class="st4" points="295.7,422.3 154.9,357.3 154.9,288.4 	"/>
	<path class="st4" d="M60,329.4l94.9,27.6L60,329.4z"/>
	<path class="st5" d="M482.2,272.2c0,12.6-10.2,22.9-22.9,22.9S431,284.8,431,272.2s15.6-22.9,28.3-22.9S482.2,259.6,482.2,272.2z"
		/>
	<path class="st5" d="M427.6,342.2c10.7,8.1,51.3,36.6,109.7,33.7c61.9-3.1,100.7-39.5,109.7-48.5"/>
	<path class="st5" d="M552.5,269.8c0-14.1,11.4-25.4,25.4-25.4c14.1,0,31.4,11.4,31.4,25.4S592,295.2,578,295.2
		C563.9,295.2,552.5,283.8,552.5,269.8z"/>
</g>
<g id="Layer_3">
	<path class="st6" d="M887.5,552.5"/>
	<path class="st7" d="M486.9,336.8c1.3,4.9,4.7,9.2,6,14.1c12.4-1.3,24.7-2.7,37.1-4c0-4,0-9.4,0-13.5"/>
	<path class="st2" d="M681.5,495.7"/>
	<path class="st2" d="M408.1,501.1"/>
	<path class="st8" d="M393.2,567c84.1,34.8,174.6,36.1,273.4-5.4"/>
	<path class="st8" d="M401.2,628.9c83.5,29.9,174.9,26.9,273.4-5.4"/>
	<path class="st2" d="M681.3,495.6"/>
	<path class="st2" d="M408,501"/>
	<path class="st8" d="M393.2,690.9c84.3,32.4,176.9,23.1,273.4-5.4"/>
	<path class="st8" d="M401.2,501c84.1,34.8,174.6,36.1,273.4-5.4"/>
	<path class="st9" d="M95.7,394.7c20-12.3,39.9-24.7,59.9-37"/>
	<polyline class="st4" points="741.9,439.5 892,374.4 946.3,422.8 	"/>
	<path class="st4" d="M980.7,319.2l-88.5,55.4L980.7,319.2z"/>
	<path class="st9" d="M904.2,301.4c-4,24.2-8,48.3-12,72.5"/>
</g>
<g id="Layer_4">
</g>
</svg>
